<?xml version="1.0" ?><svg height="128" id="svg8" version="1.1" viewBox="0 0 33.866666 33.866668" width="128" xmlns="http://www.w3.org/2000/svg" xmlns:svg="http://www.w3.org/2000/svg"><defs id="defs2"><clipPath clipPathUnits="userSpaceOnUse" id="clipPath5292"><ellipse cx="554.68481" cy="1234.8002" id="ellipse5294" rx="46.906162" ry="46.90797" style="display:inline;opacity:0.469;fill:#ffaaaa;fill-rule:evenodd;stroke:#333333;stroke-width:3.5625;stroke-linecap:round;stroke-linejoin:round;stroke-miterlimit:4;stroke-dasharray:none;stroke-dashoffset:6.5999999;stroke-opacity:1"/></clipPath><clipPath clipPathUnits="userSpaceOnUse" id="clipPath6174"><ellipse cx="128.2972" cy="1416.0679" id="ellipse6176" rx="55.76445" ry="55.766594" style="display:inline;opacity:0.572;fill:#ff9696;fill-opacity:1;fill-rule:evenodd;stroke:#333333;stroke-width:4.21448183;stroke-linecap:round;stroke-linejoin:round;stroke-miterlimit:4;stroke-dasharray:none;stroke-dashoffset:6.5999999;stroke-opacity:1"/></clipPath><clipPath clipPathUnits="userSpaceOnUse" id="clipPath5123"><ellipse cx="68.499504" cy="1656.6876" id="ellipse5125" rx="71.409416" ry="71.223892" style="display:inline;opacity:0.45199998;fill:#ffe680;fill-rule:evenodd;stroke:none;stroke-width:4.21448183;stroke-linecap:round;stroke-linejoin:round;stroke-miterlimit:4;stroke-dasharray:none;stroke-dashoffset:6.5999999;stroke-opacity:1"/></clipPath></defs><g id="layer1" transform="translate(0,-263.13332)"><g id="g5389" transform="matrix(0.29384001,0,0,0.29384001,-193.61705,-147.47888)"><g id="g5215" transform="translate(516.80985,-83.708638)"><ellipse cx="199.757" cy="1538.7369" id="ellipse5066" rx="55.76445" ry="55.766594" style="display:inline;fill:#ffeeaa;fill-rule:evenodd;stroke:none;stroke-width:4.21875;stroke-linecap:round;stroke-linejoin:round;stroke-miterlimit:4;stroke-dasharray:none;stroke-dashoffset:6.5999999;stroke-opacity:1"/><g clip-path="url(#clipPath5123)" id="g5094" style="stroke-width:1.27886522" transform="matrix(0.77844498,0.06202065,-0.06218459,0.78050268,249.41607,241.39245)"><path d="m 65.621053,1781.1261 c 0,0 1.51816,8.4202 5.00432,10.4465 4.33239,2.5183 7.93464,2.9427 12.12585,0.1935 4.26121,-2.795 7.50648,-11.9943 7.50648,-11.9943 z" id="path5078" style="fill:#ffe680;fill-opacity:1;fill-rule:evenodd;stroke:#333333;stroke-width:5.2753191;stroke-linecap:butt;stroke-linejoin:miter;stroke-miterlimit:4;stroke-dasharray:none;stroke-opacity:1"/><path d="m 70.817843,1660.1083 c -28.27268,3.1344 -38.28566,31.0211 -43.49908,55.3282 -5.84286,27.2417 9.48157,54.4649 31.18075,66.5486 21.34261,11.8852 50.527437,-3.51 59.666887,-22.0539 8.54848,-17.3448 7.96981,-39.6586 1.92473,-58.0366 -6.60893,-20.0922 -27.913097,-44.1545 -49.273287,-41.7863 z" id="path5080" style="fill:#ffdd55;fill-rule:evenodd;stroke:none;stroke-width:5.2753191;stroke-linecap:butt;stroke-linejoin:miter;stroke-miterlimit:4;stroke-dasharray:none;stroke-opacity:1"/><path d="m 63.35282,1643.6963 c 0,0 -0.322593,12.47 -6.250526,17.9585 -9.373039,8.6785 -39.265017,15.7454 -41.286397,18.7824 0,0 10.263769,-28.9425 20.889938,-35.9172 14.523519,-9.5327 26.646985,-0.8237 26.646985,-0.8237 z" id="path5086" style="fill:#8dd35f;fill-rule:evenodd;stroke:none;stroke-width:5.2753191;stroke-linecap:round;stroke-linejoin:round;stroke-miterlimit:4;stroke-dasharray:none;stroke-opacity:1"/><path d="m 69.3838,1653.8682 c 0.691069,-6.2021 0.03893,-12.6872 -0.07251,-18.9356 l 1.594111,0.874 c 0.652421,5.9425 0.970624,11.7959 1.449179,17.9159 z" id="path5090" style="fill:none;fill-rule:evenodd;stroke:#333333;stroke-width:3.97194457;stroke-linecap:round;stroke-linejoin:round;stroke-miterlimit:4;stroke-dasharray:none;stroke-opacity:1"/><path d="m -1088.893,1914.7634 h 127.70003 l -25.16717,173.8464 h -68.04456 z" id="path5092" style="fill:none;fill-rule:evenodd;stroke:#aa8800;stroke-width:7.19361734;stroke-linecap:butt;stroke-linejoin:miter;stroke-miterlimit:4;stroke-dasharray:none;stroke-opacity:1"/></g></g><path d="m 723.33932,1466.5203 c 7.37368,2.4703 13.60741,8.1541 16.74628,15.2689 0.50555,1.1459 0.93421,2.3258 1.28212,3.529" id="path6258" style="fill:none;fill-rule:evenodd;stroke:#ffffff;stroke-width:3.37499976;stroke-linecap:round;stroke-linejoin:round;stroke-miterlimit:4;stroke-dasharray:none;stroke-opacity:1"/></g></g></svg>