<?xml version="1.0" ?><svg height="128" id="svg8" version="1.1" viewBox="0 0 33.866666 33.866668" width="128" xmlns="http://www.w3.org/2000/svg" xmlns:svg="http://www.w3.org/2000/svg"><defs id="defs2"><clipPath clipPathUnits="userSpaceOnUse" id="clipPath5292"><ellipse cx="554.68481" cy="1234.8002" id="ellipse5294" rx="46.906162" ry="46.90797" style="display:inline;opacity:0.469;fill:#ffaaaa;fill-rule:evenodd;stroke:#333333;stroke-width:3.5625;stroke-linecap:round;stroke-linejoin:round;stroke-miterlimit:4;stroke-dasharray:none;stroke-dashoffset:6.5999999;stroke-opacity:1"/></clipPath><clipPath clipPathUnits="userSpaceOnUse" id="clipPath6174"><ellipse cx="128.2972" cy="1416.0679" id="ellipse6176" rx="55.76445" ry="55.766594" style="display:inline;opacity:0.572;fill:#ff9696;fill-opacity:1;fill-rule:evenodd;stroke:#333333;stroke-width:4.21448183;stroke-linecap:round;stroke-linejoin:round;stroke-miterlimit:4;stroke-dasharray:none;stroke-dashoffset:6.5999999;stroke-opacity:1"/></clipPath><clipPath clipPathUnits="userSpaceOnUse" id="clipPath5123"><ellipse cx="68.499504" cy="1656.6876" id="ellipse5125" rx="71.409416" ry="71.223892" style="display:inline;opacity:0.45199998;fill:#ffe680;fill-rule:evenodd;stroke:none;stroke-width:4.21448183;stroke-linecap:round;stroke-linejoin:round;stroke-miterlimit:4;stroke-dasharray:none;stroke-dashoffset:6.5999999;stroke-opacity:1"/></clipPath><clipPath clipPathUnits="userSpaceOnUse" id="clipPath8754"><ellipse cx="205.48343" cy="1298.3982" id="ellipse8756" rx="78.18396" ry="83.010139" style="display:inline;opacity:0.419;fill:#ffaaaa;fill-opacity:1;fill-rule:evenodd;stroke:#333333;stroke-width:4.21448183;stroke-linecap:round;stroke-linejoin:round;stroke-miterlimit:4;stroke-dasharray:none;stroke-dashoffset:6.5999999;stroke-opacity:1"/></clipPath><clipPath clipPathUnits="userSpaceOnUse" id="clipPath11474"><ellipse cx="230.12242" cy="1486.3468" id="ellipse11476" rx="55.76445" ry="55.766594" style="display:inline;opacity:0.32099998;fill:#efb5e3;fill-opacity:1;fill-rule:evenodd;stroke:none;stroke-width:4.21448183;stroke-linecap:round;stroke-linejoin:round;stroke-miterlimit:4;stroke-dasharray:none;stroke-dashoffset:6.5999999;stroke-opacity:1"/></clipPath><clipPath clipPathUnits="userSpaceOnUse" id="clipPath5143"><ellipse cx="209.94763" cy="1573.1123" id="ellipse5145" rx="55.764446" ry="55.766594" style="display:inline;opacity:0.43500001;fill:#ffaaaa;fill-rule:evenodd;stroke:#333333;stroke-width:4.21448183;stroke-linecap:round;stroke-linejoin:round;stroke-miterlimit:4;stroke-dasharray:none;stroke-dashoffset:6.5999999;stroke-opacity:1"/></clipPath></defs><g id="layer1" transform="translate(0,-263.13332)"><g id="g5509" transform="matrix(0.29939906,0,0,0.29939906,-197.33602,-271.60166)"><ellipse cx="715.66473" cy="1842.5853" id="ellipse5368" rx="55.76445" ry="55.766594" style="display:inline;fill:#ffdf9a;fill-opacity:1;fill-rule:evenodd;stroke:none;stroke-width:4.21448183;stroke-linecap:round;stroke-linejoin:round;stroke-miterlimit:4;stroke-dasharray:none;stroke-dashoffset:6.5999999;stroke-opacity:1"/><g clip-path="url(#clipPath5143)" id="g5388" transform="translate(505.71714,269.18667)"><g clip-path="none" id="g5384" style="stroke:none;stroke-width:1.22063828" transform="matrix(0.81884882,0,0,0.81963837,31.45413,456.33151)"><path d="m 221.55758,1371.2875 c -29.01748,-0.5935 -47.40466,22.7857 -48.8179,45.1469 -1.80802,28.6077 23.20441,47.6643 45.20962,48.5704 23.07244,0.9502 49.38109,-12.4596 51.3649,-46.8587 1.29796,-22.5057 -21.36673,-46.3188 -47.75662,-46.8586 z" id="path5376" style="fill:#ffa152;fill-opacity:1;fill-rule:evenodd;stroke:none;stroke-width:5.03513288;stroke-linecap:round;stroke-linejoin:round;stroke-miterlimit:4;stroke-dasharray:none;stroke-opacity:1"/><path d="m 219.70899,1369.5237 c -0.93561,-8.3835 -0.66486,-16.7671 0.1956,-25.1505 1.15066,0.4922 2.30129,0.7715 3.45195,2.4208 -1.11563,8.1075 -1.43578,15.9288 0.23799,23.0323 z" id="path5378" style="fill:#a56d46;fill-opacity:1;fill-rule:evenodd;stroke:none;stroke-width:5.03513288;stroke-linecap:round;stroke-linejoin:round;stroke-miterlimit:4;stroke-dasharray:none;stroke-opacity:1"/><path d="m 165.61408,1382.0343 c 11.23854,-12.9985 29.49498,-9.4857 41.49523,-14.3358 3.44164,-1.3909 7.11044,-7.1678 7.11044,-7.1678 0,0 -8.17841,-9.6957 -20.06329,-8.5676 -15.03922,1.4273 -23.17861,16.3072 -28.54238,30.0712 z" id="path5380" style="fill:#5d9537;fill-opacity:1;fill-rule:evenodd;stroke:none;stroke-width:5.03513288;stroke-linecap:round;stroke-linejoin:round;stroke-miterlimit:4;stroke-dasharray:none;stroke-opacity:1"/><path d="m 211.26716,1378.0334 c 7.65363,-3.438 13.70933,-2.8275 21.24911,-0.4044" id="path5382" style="fill:none;fill-rule:evenodd;stroke:none;stroke-width:5.03513288;stroke-linecap:round;stroke-linejoin:round;stroke-miterlimit:4;stroke-dasharray:none;stroke-opacity:1"/></g></g><path d="m 728.64262,1859.9588 c 7.37368,2.4703 13.60741,8.1541 16.74628,15.2689 0.50555,1.1459 0.93421,2.3258 1.28212,3.529" id="path5487" style="fill:none;fill-rule:evenodd;stroke:#ffffff;stroke-width:3.37499976;stroke-linecap:round;stroke-linejoin:round;stroke-miterlimit:4;stroke-dasharray:none;stroke-opacity:1"/></g></g></svg>