<?xml version="1.0" ?><svg height="128" id="svg8" version="1.1" viewBox="0 0 33.866666 33.866668" width="128" xmlns="http://www.w3.org/2000/svg" xmlns:svg="http://www.w3.org/2000/svg"><defs id="defs2"/><g id="layer1" transform="translate(0,-263.13332)"><g id="g5408" transform="matrix(0.33739357,0,0,0.33739357,-221.81967,-7.5665365)"><circle cx="707.63947" cy="852.51526" id="circle5079" r="49.821774" style="display:inline;fill:#dde9af;fill-rule:evenodd;stroke:none;stroke-width:2.36333537;stroke-linecap:round;stroke-linejoin:round;stroke-miterlimit:4;stroke-dasharray:0, 2.36333542, 4.72667084, 7.09000625, 9.45334167, 11.81667709, 14.18001251, 16.54334793, 18.90668335, 21.27001876, 23.63335418, 25.9966896, 28.36002502, 30.72336044, 33.08669586;stroke-dashoffset:6.5999999;stroke-opacity:1"/><path d="m 703.4855,854.85761 c 0,0 -9.90583,0.75777 -14.29425,-1.13652 -4.91094,-2.11987 -11.89712,-10.76865 -11.89712,-10.76865 0,0 12.95325,-3.1872 17.34661,-0.89821 4.6002,2.39677 7.92604,9.06464 8.84476,12.80338 z" id="path5067" style="display:inline;fill:#88aa00;fill-rule:evenodd;stroke:none;stroke-width:2.04966855;stroke-linecap:round;stroke-linejoin:round;stroke-miterlimit:4;stroke-dasharray:0, 2.04966875, 4.0993375, 6.14900625, 8.19867499, 10.24834374, 12.29801249, 14.34768124, 16.39734999, 18.44701874, 20.49668749, 22.54635623, 24.59602498, 26.64569373, 28.69536248;stroke-dashoffset:0;stroke-opacity:1"/><path d="m 706.93503,854.73074 c 1.27885,-4.35544 -2.14292,-11.07767 0,-13.88305 0.64496,-0.67139 2.1678,-0.99481 2.77864,-0.29228 -0.3509,3.45875 -0.49656,10.43234 1.38937,13.88305 -1.41942,0.33773 -2.92701,1.38069 -4.16801,0.29228 z" id="path5077" style="display:inline;fill:#c87137;fill-rule:evenodd;stroke:none;stroke-width:2.36333537;stroke-linecap:round;stroke-linejoin:round;stroke-miterlimit:4;stroke-dasharray:0, 2.36333542, 4.72667084, 7.09000625, 9.45334167, 11.81667709, 14.18001251, 16.54334793, 18.90668335, 21.27001876, 23.63335418, 25.9966896, 28.36002502, 30.72336044, 33.08669586;stroke-dashoffset:0;stroke-opacity:1"/><path d="m 713.57628,856.85216 c -5.76736,0.0973 -10.72591,1.36546 -14.38681,4.86138 -3.51011,3.35191 -3.39283,9.09819 -5.29185,13.56473 -3.43854,8.08758 -8.13814,13.16396 -10.93593,20.47415 7.51407,4.302 16.01959,6.5715 24.67805,6.58475 10.37771,-0.0222 20.48942,-3.28468 28.9234,-9.33165 -1.62669,-4.72552 -5.61887,-9.52495 -8.56479,-14.20327 -4.665,-7.40827 -5.31868,-22.05951 -14.42207,-21.95009 z" id="circle5091" style="display:inline;fill:#bcd35f;fill-opacity:1;fill-rule:evenodd;stroke:none;stroke-width:2.36333537;stroke-linecap:round;stroke-linejoin:round;stroke-miterlimit:4;stroke-dasharray:0, 2.36333542, 4.72667084, 7.09000625, 9.45334167, 11.81667709, 14.18001251, 16.54334793, 18.90668335, 21.27001876, 23.63335418, 25.9966896, 28.36002502, 30.72336044, 33.08669586;stroke-dashoffset:0;stroke-opacity:1"/><path d="m 715.33431,866.49223 c 2.85694,2.40434 3.87654,6.49561 3.58966,10.58103" id="path6368" style="opacity:1;vector-effect:none;fill:none;fill-opacity:1;fill-rule:evenodd;stroke:#ffffff;stroke-width:3.37300587;stroke-linecap:round;stroke-linejoin:round;stroke-miterlimit:4;stroke-dasharray:none;stroke-dashoffset:0;stroke-opacity:1"/></g></g></svg>