<?xml version="1.0" ?><svg height="128" id="svg8" version="1.1" viewBox="0 0 33.866666 33.866668" width="128" xmlns="http://www.w3.org/2000/svg" xmlns:svg="http://www.w3.org/2000/svg"><defs id="defs2"><clipPath clipPathUnits="userSpaceOnUse" id="clipPath5292"><ellipse cx="554.68481" cy="1234.8002" id="ellipse5294" rx="46.906162" ry="46.90797" style="display:inline;opacity:0.469;fill:#ffaaaa;fill-rule:evenodd;stroke:#333333;stroke-width:3.5625;stroke-linecap:round;stroke-linejoin:round;stroke-miterlimit:4;stroke-dasharray:none;stroke-dashoffset:6.5999999;stroke-opacity:1"/></clipPath><clipPath clipPathUnits="userSpaceOnUse" id="clipPath6174"><ellipse cx="128.2972" cy="1416.0679" id="ellipse6176" rx="55.76445" ry="55.766594" style="display:inline;opacity:0.572;fill:#ff9696;fill-opacity:1;fill-rule:evenodd;stroke:#333333;stroke-width:4.21448183;stroke-linecap:round;stroke-linejoin:round;stroke-miterlimit:4;stroke-dasharray:none;stroke-dashoffset:6.5999999;stroke-opacity:1"/></clipPath><clipPath clipPathUnits="userSpaceOnUse" id="clipPath5123"><ellipse cx="68.499504" cy="1656.6876" id="ellipse5125" rx="71.409416" ry="71.223892" style="display:inline;opacity:0.45199998;fill:#ffe680;fill-rule:evenodd;stroke:none;stroke-width:4.21448183;stroke-linecap:round;stroke-linejoin:round;stroke-miterlimit:4;stroke-dasharray:none;stroke-dashoffset:6.5999999;stroke-opacity:1"/></clipPath><clipPath clipPathUnits="userSpaceOnUse" id="clipPath8754"><ellipse cx="205.48343" cy="1298.3982" id="ellipse8756" rx="78.18396" ry="83.010139" style="display:inline;opacity:0.419;fill:#ffaaaa;fill-opacity:1;fill-rule:evenodd;stroke:#333333;stroke-width:4.21448183;stroke-linecap:round;stroke-linejoin:round;stroke-miterlimit:4;stroke-dasharray:none;stroke-dashoffset:6.5999999;stroke-opacity:1"/></clipPath></defs><g id="layer1" transform="translate(0,-263.13332)"><g id="g8848" transform="matrix(0.29865225,0,0,0.29865225,-197.60465,-193.8131)"><ellipse cx="718.35382" cy="1586.7275" id="ellipse8780" rx="55.76445" ry="55.766594" style="display:inline;fill:#ffaaaa;fill-opacity:1;fill-rule:evenodd;stroke:none;stroke-width:4.21448183;stroke-linecap:round;stroke-linejoin:round;stroke-miterlimit:4;stroke-dasharray:none;stroke-dashoffset:6.5999999;stroke-opacity:1"/><g clip-path="url(#clipPath8754)" id="g8800" style="stroke:none;stroke-width:5.959126;stroke-miterlimit:4;stroke-dasharray:none" transform="matrix(0.71324665,0,0,0.67180464,571.79348,714.3693)"><path d="m 261.39153,1357.5705 c -2.56759,-40.4289 -35.70025,-46.4685 -35.70025,-46.4685 l -34.65505,-1.7776 c 0,0 -37.4424,6.2231 -40.0338,49.036 -1.84166,30.4263 20.68215,57.4788 55.48833,59.041 35.06884,1.5738 56.71715,-31.2306 54.90077,-59.8309 z" id="path8788" style="fill:#f34444;fill-opacity:1;fill-rule:evenodd;stroke:none;stroke-width:5.959126;stroke-linecap:round;stroke-linejoin:round;stroke-miterlimit:4;stroke-dasharray:none;stroke-opacity:1"/><path d="m 213.99384,1312.2304 c -2.48814,-20.6321 6.2257,-21.2786 14.33919,-27.4959 -4.08941,10.5481 -9.52225,15.4964 -2.70682,26.673 -1.43046,1.9453 -7.38445,2.8234 -11.63237,0.8229 z" id="path8794" style="fill:#c83737;fill-opacity:1;fill-rule:evenodd;stroke:none;stroke-width:5.959126;stroke-linecap:round;stroke-linejoin:round;stroke-miterlimit:4;stroke-dasharray:none;stroke-opacity:1"/><path d="m 203.77279,1312.2268 c 2.48814,-20.632 -7.04859,-21.6443 -15.16207,-27.8615 4.08941,10.5481 9.15653,16.3192 2.3411,27.4958 2.63434,0.7918 3.71004,3.3306 12.82097,0.3657 z" id="path8796" style="fill:#c83737;fill-opacity:1;fill-rule:evenodd;stroke:none;stroke-width:5.959126;stroke-linecap:round;stroke-linejoin:round;stroke-miterlimit:4;stroke-dasharray:none;stroke-opacity:1"/><path d="m 202.30398,1312.921 c 1.34459,-10.5376 1.43995,-21.1118 5.82566,-32.0839 6.74181,10.0163 4.51133,21.3848 8.02297,31.9394 -4.46476,1.8387 -9.6865,1.9579 -13.84863,0.1445 z" id="path8798" style="fill:#d24848;fill-opacity:1;fill-rule:evenodd;stroke:none;stroke-width:5.959126;stroke-linecap:round;stroke-linejoin:round;stroke-miterlimit:4;stroke-dasharray:none;stroke-opacity:1"/></g><path d="m 737.41116,1605.3707 c 3.17741,1.3025 5.96421,3.5416 7.92055,6.3638 1.95634,2.8223 3.07519,6.2176 3.17994,9.65 0.0111,0.3639 0.0111,0.728 0,1.0919" id="path8836" style="fill:none;fill-rule:evenodd;stroke:#ffffff;stroke-width:3.37499976;stroke-linecap:round;stroke-linejoin:round;stroke-miterlimit:4;stroke-dasharray:none;stroke-opacity:1"/></g></g></svg>