<?xml version="1.0" ?><svg height="128" id="svg8" version="1.1" viewBox="0 0 33.866666 33.866668" width="128" xmlns="http://www.w3.org/2000/svg" xmlns:svg="http://www.w3.org/2000/svg"><defs id="defs2"/><g id="layer1" transform="translate(0,-263.13332)"><g id="g5364" transform="matrix(0.35432907,0,0,0.35432907,-233.98612,-62.413212)"><g id="g6185" style="stroke:none" transform="matrix(0.39807545,0,0,0.39807246,-15.246069,626.9011)"><g id="g6221" transform="translate(111.53478,-61.96423)"><ellipse cx="1705.7081" cy="915.21991" id="ellipse6189" rx="119.01176" ry="119.01265" style="display:inline;fill:#ffccaa;fill-rule:evenodd;stroke:none;stroke-width:8.90538883;stroke-linecap:round;stroke-linejoin:round;stroke-miterlimit:4;stroke-dasharray:none;stroke-dashoffset:6.5999999;stroke-opacity:1"/><path d="m 1714.3952,909.07238 c -13.1888,-0.0981 -31.6791,3.18558 -50.9887,19.16113 -23.7225,19.62667 -34.3223,47.1005 -31.9069,79.88209 a 119.01175,119.01265 0 0 0 74.2089,26.1173 119.01175,119.01265 0 0 0 88.2079,-39.31879 c -8.6068,-40.24756 -36.0682,-79.9445 -62.4741,-84.02325 -3.1282,-0.48323 -9.1339,-1.75953 -17.0471,-1.81848 z" id="path6191" style="display:inline;fill:#ff5555;fill-opacity:1;fill-rule:evenodd;stroke:none;stroke-width:8.90538883;stroke-linecap:round;stroke-linejoin:round;stroke-miterlimit:4;stroke-dasharray:none;stroke-dashoffset:6.5999999;stroke-opacity:1"/><path d="m 1712.9685,898.55878 c -0.9914,-3.6948 -2.8722,-13.11466 1.6245,-16.08374 1.1422,-0.75415 2.6244,0.781 3.919,1.22523 1.3449,0.46148 3.1282,0.36786 3.9949,1.49501 4.0054,5.20909 2.2109,19.6566 1.9347,19.61778 -4.016,-0.56453 -9.208,2.18768 -11.4731,-6.25428 z" id="path6195" style="display:inline;fill:#8f5329;fill-opacity:1;fill-rule:evenodd;stroke:none;stroke-width:8.90538883;stroke-linecap:round;stroke-linejoin:round;stroke-miterlimit:4;stroke-dasharray:none;stroke-dashoffset:0;stroke-opacity:1"/><path d="m 1807.6483,903.09376 c 3.4914,12.7766 1.4504,23.34482 -1.2892,34.00924" id="path6197" style="opacity:1;fill:none;fill-opacity:0;fill-rule:evenodd;stroke:none;stroke-width:5.93692541;stroke-linecap:round;stroke-linejoin:round;stroke-miterlimit:4;stroke-dasharray:none;stroke-dashoffset:0;stroke-opacity:1"/><path d="m 1670.5079,942.30889 c -14.9138,14.89652 -19.4927,41.08508 -22.5013,60.42301" id="path6203" style="opacity:1;fill:none;fill-opacity:1;fill-rule:evenodd;stroke:none;stroke-width:5.93692541;stroke-linecap:round;stroke-linejoin:round;stroke-miterlimit:4;stroke-dasharray:none;stroke-dashoffset:0;stroke-opacity:1"/></g></g><path d="m 696.58299,976.90134 c -2.27877,2.08379 -4.12316,4.64046 -5.38178,7.46018 -1.6182,3.62529 -2.25673,7.68233 -1.83034,11.62942" id="path6324" style="fill:none;fill-rule:evenodd;stroke:#ffffff;stroke-width:3.375;stroke-linecap:round;stroke-linejoin:round;stroke-miterlimit:4;stroke-dasharray:none;stroke-opacity:1"/></g></g></svg>