<?xml version="1.0" ?><svg height="128" id="svg8" version="1.1" viewBox="0 0 33.866666 33.866668" width="128" xmlns="http://www.w3.org/2000/svg" xmlns:svg="http://www.w3.org/2000/svg"><defs id="defs2"><clipPath clipPathUnits="userSpaceOnUse" id="clipPath5292"><ellipse cx="554.68481" cy="1234.8002" id="ellipse5294" rx="46.906162" ry="46.90797" style="display:inline;opacity:0.469;fill:#ffaaaa;fill-rule:evenodd;stroke:#333333;stroke-width:3.5625;stroke-linecap:round;stroke-linejoin:round;stroke-miterlimit:4;stroke-dasharray:none;stroke-dashoffset:6.5999999;stroke-opacity:1"/></clipPath></defs><g id="layer1" transform="translate(0,-263.13332)"><g id="g6449" transform="matrix(0.35413863,0,0,0.35413863,-236.18998,-142.12707)"><ellipse cx="714.75769" cy="1192.1708" id="ellipse6084" rx="46.906162" ry="46.90797" style="display:inline;fill:#ffd479;fill-opacity:1;fill-rule:evenodd;stroke:none;stroke-width:3.5625;stroke-linecap:round;stroke-linejoin:round;stroke-miterlimit:4;stroke-dasharray:none;stroke-dashoffset:6.5999999;stroke-opacity:1"/><g clip-path="url(#clipPath5292)" id="g6122" transform="translate(160.07291,-42.629395)"><g id="g6102" style="stroke:none" transform="translate(1.5441117,4.0266436)"><path d="m 556.7073,1254.8539 c 3.29201,-15.1863 10.83637,-11.9036 6.11887,-36.8859 0.0422,0.1099 7.67262,3.7456 7.71401,14.9085 0.037,9.9171 -12.66407,24.681 -13.83288,21.9774 z" id="path6092" style="fill:#6b7e22;fill-opacity:1;fill-rule:evenodd;stroke:none;stroke-width:3.5625;stroke-linecap:round;stroke-linejoin:round;stroke-miterlimit:4;stroke-dasharray:none;stroke-opacity:1"/><path d="m 548.99174,1248.0795 c 7.37026,-13.9691 2.74445,-13.5349 13.23586,-37.8488 0.008,0.1156 4.56543,7.451 4.64498,18.6138 0.0745,10.4543 -10.57746,25.789 -17.88084,19.235 z" id="path6094" style="fill:#89a02c;fill-opacity:1;fill-rule:evenodd;stroke:none;stroke-width:3.5625;stroke-linecap:round;stroke-linejoin:round;stroke-miterlimit:4;stroke-dasharray:none;stroke-opacity:1"/><path d="m 550.53443,1255.0418 c -3.292,-14.3414 -12.30628,-13.3363 -7.58875,-36.9287 -0.0422,0.1038 -6.56451,4.5178 -6.6059,15.0596 -0.0368,9.3653 13.02583,24.4223 14.19465,21.8691 z" id="path6096" style="fill:#6b7e22;fill-opacity:1;fill-rule:evenodd;stroke:none;stroke-width:3.5625;stroke-linecap:round;stroke-linejoin:round;stroke-miterlimit:4;stroke-dasharray:none;stroke-opacity:1"/><path d="m 557.8442,1247.9345 c -7.35646,-14.0099 -1.2082,-14.7205 -13.23586,-37.8489 -0.008,0.1156 -4.56544,7.4511 -4.64499,18.6138 -0.0745,10.4543 10.57746,25.789 17.88085,19.2351 z" id="path6098" style="fill:#89a02c;fill-opacity:1;fill-rule:evenodd;stroke:none;stroke-width:3.5625;stroke-linecap:round;stroke-linejoin:round;stroke-miterlimit:4;stroke-dasharray:none;stroke-opacity:1"/><path d="m 550.53443,1255.0418 c -6.29892,-17.3899 0.44582,-34.3717 0,-49.3918 15.71658,19.3316 8.11313,36.3466 0,49.3918 z" id="path6100" style="fill:#acc44a;fill-opacity:1;fill-rule:evenodd;stroke:none;stroke-width:3.5625;stroke-linecap:round;stroke-linejoin:round;stroke-miterlimit:4;stroke-dasharray:none;stroke-opacity:1"/></g><g id="g6120"><path d="m 579.45432,1279.0016 c 10e-6,19.0662 -8.29819,26.0776 -24.13387,26.0776 -15.83566,-10e-5 -25.04169,-7.0114 -25.04167,-26.0776 0,-19.0662 7.04684,-31.2338 24.73907,-31.3556 16.10117,-0.1108 24.43647,12.2894 24.43647,31.3556 z" id="path6104" style="fill:#ffb380;fill-rule:evenodd;stroke:none;stroke-width:3.5625;stroke-linecap:round;stroke-linejoin:round;stroke-miterlimit:4;stroke-dasharray:none;stroke-opacity:1"/><path d="m 548.95885,1254.2522 23.77737,20.3656" id="path6110" style="fill:#000000;fill-opacity:0;fill-rule:evenodd;stroke:#e39258;stroke-width:3.56249976;stroke-linecap:round;stroke-linejoin:round;stroke-miterlimit:4;stroke-dasharray:none;stroke-opacity:1"/><path d="m 540.99692,1262.6779 29.19988,25.3285" id="path6112" style="fill:#000000;fill-opacity:0;fill-rule:evenodd;stroke:#e39258;stroke-width:3.5625;stroke-linecap:round;stroke-linejoin:round;stroke-miterlimit:4;stroke-dasharray:none;stroke-opacity:1"/><path d="m 560.81246,1254.2046 -23.88104,20.4543" id="path6116" style="fill:#000000;fill-opacity:0;fill-rule:evenodd;stroke:#e39258;stroke-width:3.56249976;stroke-linecap:round;stroke-linejoin:round;stroke-miterlimit:4;stroke-dasharray:none;stroke-opacity:1"/><path d="m 569.40461,1262.8167 -28.8,24.9817" id="path6118" style="fill:#000000;fill-opacity:0;fill-rule:evenodd;stroke:#e39258;stroke-width:3.5625;stroke-linecap:round;stroke-linejoin:round;stroke-miterlimit:4;stroke-dasharray:none;stroke-opacity:1"/></g></g><path d="m 706.28682,1212.2171 c -3.92716,3.6156 -6.53306,8.6362 -7.22953,13.9286 -0.086,0.6536 -0.14392,1.3109 -0.17352,1.9695" id="path6240" style="fill:none;fill-rule:evenodd;stroke:#ffffff;stroke-width:3.375;stroke-linecap:round;stroke-linejoin:round;stroke-miterlimit:4;stroke-dasharray:none;stroke-opacity:1"/></g></g></svg>